<?xml version="1.0" standalone="no"?>
<!DOCTYPE svg PUBLIC "-//W3C//DTD SVG 20010904//EN"
 "http://www.w3.org/TR/2001/REC-SVG-20010904/DTD/svg10.dtd">
<svg version="1.0" xmlns="http://www.w3.org/2000/svg"
 width="666.000000pt" height="374.000000pt" viewBox="0 0 666.000000 374.000000"
 preserveAspectRatio="xMidYMid meet">
<metadata>
Created by potrace 1.16, written by Peter Selinger 2001-2019
</metadata>
<g transform="translate(0.000000,374.000000) scale(0.100000,-0.100000)"
fill="#000000" stroke="none">
<path d="M4394 2705 c-38 -19 -58 -39 -89 -87 -33 -52 -41 -59 -43 -40 -2 12
-7 22 -12 22 -5 0 -8 -41 -7 -90 1 -50 -1 -90 -4 -90 -4 0 -9 -19 -12 -43 -3
-24 -9 -52 -13 -62 -4 -12 -3 -17 2 -12 5 5 14 27 20 50 l11 42 11 -40 c16
-56 47 -103 81 -123 22 -12 28 -23 27 -46 0 -17 -6 -33 -11 -36 -7 -3 -4 -12
7 -22 17 -17 19 -16 37 19 18 36 19 36 30 15 6 -12 21 -22 32 -22 27 0 19 24
-9 28 -12 2 -22 7 -22 11 0 11 50 32 61 26 5 -3 6 2 2 12 -14 39 -24 43 -87
37 -73 -7 -89 3 -107 69 -14 52 -6 174 14 213 27 52 104 84 165 68 20 -6 21
-8 6 -19 -14 -10 -10 -13 31 -19 60 -8 93 -37 101 -88 7 -38 34 -55 34 -20 0
10 5 23 11 29 8 8 8 17 0 31 -6 11 -15 41 -21 68 -29 128 -130 177 -246 119z"/>
<path d="M2170 2633 c-39 -14 -94 -61 -117 -100 -27 -47 -27 -44 -7 -250 4
-34 1 -91 -5 -127 -9 -53 -9 -72 3 -107 17 -48 97 -169 109 -162 10 6 8 82 -4
128 -43 157 -6 183 186 130 69 -19 95 -31 112 -52 13 -16 23 -32 23 -36 0 -5
17 -7 38 -5 l37 3 -1 52 c-1 40 -11 71 -43 131 -22 44 -52 119 -66 167 -13 47
-32 102 -41 121 -36 75 -155 132 -224 107z"/>
<path d="M2791 2163 c-18 -12 -25 -12 -38 -2 -13 11 -18 10 -34 -10 -11 -13
-19 -30 -19 -37 0 -8 -12 -19 -26 -24 -24 -10 -26 -14 -21 -51 3 -22 8 -43 11
-47 3 -3 51 7 105 23 95 27 99 29 104 58 6 44 -1 62 -33 85 -25 19 -29 19 -49
5z"/>
<path d="M2284 1747 l-91 -9 -12 -106 c-7 -59 -14 -129 -17 -157 -3 -27 -1
-87 5 -132 18 -139 26 -590 12 -607 -7 -8 -10 -20 -6 -26 4 -6 2 -16 -3 -23
-5 -7 -13 -22 -16 -34 -6 -17 -4 -22 6 -18 15 6 60 -39 51 -49 -4 -3 -1 -6 5
-6 7 0 12 -9 12 -20 0 -11 7 -20 16 -20 11 0 13 -6 9 -19 -8 -26 4 -31 45 -21
19 4 29 8 23 9 -20 2 -15 39 6 51 16 8 22 6 30 -7 6 -10 11 -12 11 -5 0 8 22
12 75 12 69 0 75 2 75 20 0 12 6 31 14 43 20 30 4 50 -67 81 -65 29 -71 36
-54 68 9 18 12 121 12 409 0 354 -2 391 -22 477 -11 51 -22 94 -24 95 -2 2
-45 -1 -95 -6z"/>
<path d="M4290 1556 c0 -21 -21 -86 -49 -154 -62 -146 -88 -224 -112 -332 -22
-97 -37 -276 -23 -268 5 4 25 -2 43 -12 28 -14 41 -15 65 -7 17 6 34 15 38 21
12 18 9 164 -3 168 -18 6 6 161 40 259 34 100 89 224 97 217 5 -5 -1 -21 -31
-91 -9 -22 -11 -36 -6 -32 6 3 11 12 11 20 0 7 3 15 8 17 4 2 15 19 24 38 l17
35 -7 -70 c-4 -38 -7 -137 -6 -220 1 -131 5 -161 27 -234 28 -93 40 -110 80
-113 15 -1 27 -8 27 -15 0 -7 4 -13 10 -13 5 0 7 7 3 16 -3 9 0 20 8 24 14 9
15 5 -28 155 -26 90 -27 244 -4 410 29 206 30 195 -22 195 l-43 0 4 -36 c3
-20 -1 -84 -7 -142 -6 -59 -14 -156 -17 -217 -6 -94 -9 -105 -17 -75 -6 23 -5
81 3 170 7 74 14 172 16 217 2 93 7 87 -88 99 l-58 6 0 -36z"/>
<path d="M3255 1356 c-13 -19 -232 -26 -243 -9 -5 7 -20 9 -42 4 -33 -6 -35
-9 -43 -61 -12 -74 -1 -298 19 -396 21 -105 72 -211 125 -259 23 -20 71 -51
108 -69 57 -27 79 -31 164 -34 162 -6 278 42 357 147 75 100 111 257 109 481
-2 181 -2 181 -71 195 -40 8 -59 8 -61 1 -6 -17 -247 -25 -247 -8 0 8 -20 12
-69 12 -38 0 -75 2 -83 5 -7 3 -17 -1 -23 -9z"/>
</g>
</svg>
